<svg width="24" height="23" viewBox="0 0 24 23" fill="none" xmlns="http://www.w3.org/2000/svg">
<path d="M1.74007 6.25328H22.5445M4.1579 1H19.9178C20.6144 1 21.2825 1.27673 21.7751 1.76933C22.2677 2.26192 22.5445 2.93001 22.5445 3.62664V19.3734C22.5445 20.07 22.2677 20.7381 21.7751 21.2307C21.2825 21.7233 20.6144 22 19.9178 22H4.1579C3.46127 22 2.79317 21.7233 2.30058 21.2307C1.80799 20.7381 1.53125 20.07 1.53125 19.3734V3.62664C1.53125 2.93001 1.80799 2.26192 2.30058 1.76933C2.79317 1.27673 3.46127 1 4.1579 1Z" stroke="white" stroke-width="1.31332" stroke-linecap="round" stroke-linejoin="round"/>
<path d="M6.27658 11.7339H5.78916C5.91263 11.3689 6.1248 11.0653 6.40889 10.8273C6.86266 10.4473 7.55154 10.1934 8.476 10.1934C9.38403 10.1934 10.0224 10.4436 10.4205 10.7769C10.8125 11.105 11.0091 11.5418 11.0068 12.0222C11.0029 12.6658 10.6903 13.1221 10.1668 13.3642C10.3738 13.0596 10.4854 12.6947 10.4854 12.3C10.4854 11.7718 10.2728 11.2846 9.87545 10.9373C9.48371 10.5949 8.95762 10.4259 8.38013 10.4259C7.80362 10.4259 7.26252 10.5743 6.84493 10.9211C6.57943 11.1416 6.39129 11.4197 6.27658 11.7339ZM8.35518 14.2332C8.68915 14.2332 9.01094 14.1746 9.30078 14.0553V14.1281V14.2503V14.4678C9.01205 14.3782 8.69808 14.3369 8.37357 14.3369H7.85611V14.2332H8.35518ZM10.7113 16.32C10.7113 15.7863 10.5183 15.3101 10.1524 14.9573C10.5299 15.0544 10.8066 15.222 10.9955 15.425C11.2253 15.6718 11.3719 16.0202 11.3719 16.4947C11.3719 17.5996 10.3165 18.6092 8.41165 18.6092C7.48233 18.6092 6.7588 18.3552 6.27159 17.9634C5.96512 17.7169 5.73567 17.4035 5.60187 17.0279H6.15426C6.28533 17.3469 6.49998 17.6209 6.78286 17.8323C7.22098 18.1598 7.78472 18.311 8.3867 18.311C8.99063 18.311 9.56159 18.1471 9.99659 17.8021C10.4437 17.4475 10.7113 16.9265 10.7113 16.32ZM16.2097 10.4311H17.2792V18.3715H16.6554V11.6591V11.0024H15.9987H15.8845H15.6801L15.5118 11.1184L14.2704 11.9742V11.7676L16.2097 10.4311Z" fill="black" stroke="white" stroke-width="1.31332"/>
</svg>
