<svg width="29" height="21" viewBox="0 0 29 21" fill="none" xmlns="http://www.w3.org/2000/svg">
<path d="M25.9195 21H3.16944C1.71694 21 0.544434 19.8275 0.544434 18.375V2.625C0.544434 1.1725 1.71694 0 3.16944 0H25.9195C27.372 0 28.5445 1.1725 28.5445 2.625V18.375C28.5445 19.8275 27.372 21 25.9195 21ZM3.16944 1.75C2.67944 1.75 2.29444 2.135 2.29444 2.625V18.375C2.29444 18.865 2.67944 19.25 3.16944 19.25H25.9195C26.4095 19.25 26.7945 18.865 26.7945 18.375V2.625C26.7945 2.135 26.4095 1.75 25.9195 1.75H3.16944Z" fill="white"/>
<path d="M14.544 13.9298C13.319 13.9298 12.199 13.4398 11.359 12.5473L2.17143 2.78234C1.83893 2.43234 1.85643 1.87234 2.20643 1.53984C2.55644 1.20734 3.11644 1.22484 3.44894 1.57484L12.6365 11.3398C13.634 12.4073 15.454 12.4073 16.4515 11.3398L25.639 1.59234C25.9715 1.24234 26.5315 1.22484 26.8815 1.55734C27.2315 1.88984 27.249 2.44984 26.9165 2.79984L17.729 12.5648C16.889 13.4573 15.769 13.9473 14.544 13.9473V13.9298Z" fill="white"/>
</svg>
