<svg width="22" height="21" viewBox="0 0 22 21" fill="none" xmlns="http://www.w3.org/2000/svg">
<path d="M10.7656 0C4.81762 0 0 4.8176 0 10.7656C0 15.5294 3.08166 19.553 7.36099 20.9794C7.89928 21.0736 8.10113 20.7507 8.10113 20.4681C8.10113 20.2124 8.08767 19.3646 8.08767 18.463C5.38281 18.9609 4.68305 17.8036 4.46773 17.198C4.34662 16.8885 3.8218 15.9331 3.36426 15.6774C2.98746 15.4755 2.44918 14.9776 3.3508 14.9642C4.19859 14.9507 4.80416 15.7447 5.00601 16.0676C5.97492 17.6959 7.52248 17.2384 8.1415 16.9558C8.2357 16.256 8.5183 15.785 8.82781 15.5159C6.43246 15.2468 3.92945 14.3182 3.92945 10.2004C3.92945 9.02963 4.34662 8.06073 5.03293 7.30714C4.92527 7.038 4.54848 5.93453 5.14058 4.45426C5.14058 4.45426 6.04221 4.17166 8.10113 5.55773C8.96238 5.31551 9.87746 5.19439 10.7925 5.19439C11.7076 5.19439 12.6227 5.31551 13.4839 5.55773C15.5429 4.15821 16.4445 4.45426 16.4445 4.45426C17.0366 5.93453 16.6598 7.038 16.5521 7.30714C17.2385 8.06073 17.6556 9.01618 17.6556 10.2004C17.6556 14.3317 15.1392 15.2468 12.7438 15.5159C13.1341 15.8523 13.4705 16.4983 13.4705 17.5075C13.4705 18.9474 13.457 20.1047 13.457 20.4681C13.457 20.7507 13.6589 21.0871 14.1972 20.9794C16.3347 20.2585 18.1921 18.8851 19.5078 17.0527C20.8236 15.2204 21.5313 13.0214 21.5312 10.7656C21.5312 4.8176 16.7136 0 10.7656 0Z" fill="white"/>
</svg>
