<svg width="20" height="23" viewBox="0 0 20 23" fill="none" xmlns="http://www.w3.org/2000/svg">
<path d="M10.2427 9.69824H10.2561V9.7117H10.2427V9.69824Z" stroke="white" stroke-width="2.83081" stroke-linejoin="round"/>
<path d="M10.243 22L16.3939 15.8491C17.6103 14.6326 18.4388 13.0827 18.7744 11.3953C19.11 9.708 18.9377 7.95905 18.2793 6.36963C17.6209 4.78021 16.506 3.42172 15.0755 2.46593C13.6451 1.51015 11.9633 1 10.243 1C8.52257 1 6.84081 1.51015 5.41036 2.46593C3.9799 3.42172 2.86499 4.78021 2.20661 6.36963C1.54823 7.95905 1.37595 9.708 1.71155 11.3953C2.04715 13.0827 2.87557 14.6326 4.09204 15.8491L10.243 22Z" stroke="white" stroke-width="1.88721" stroke-linejoin="round"/>
</svg>
